<?xml version="1.0" standalone="no"?><!DOCTYPE svg PUBLIC "-//W3C//DTD SVG 1.1//EN" "http://www.w3.org/Graphics/SVG/1.1/DTD/svg11.dtd">
<svg
  t="1730729068409"
  class="svg-icon"
  viewBox="0 0 1024 1024"
  version="1.1"
  xmlns="http://www.w3.org/2000/svg"
  p-id="21962"
  xmlns:xlink="http://www.w3.org/1999/xlink"
  width="200"
  height="200"
>
  <path d="M944.7936 723.5072a21.8624 21.8624 0 0 0-12.6464-14.4384 22.8352 22.8352 0 0 0-20.0192 0 29.0816 29.0816 0 0 1-42.1376-25.6 27.0336 27.0336 0 0 1 11.5712-22.5792 22.7328 22.7328 0 0 0 9.472-17.4592 20.8896 20.8896 0 0 0-7.3728-17.4592 220.7232 220.7232 0 0 0-83.2-46.08 20.8896 20.8896 0 0 0-18.944 3.072 23.2448 23.2448 0 0 0-10.5472 15.36 29.952 29.952 0 0 1-58.9824 0 20.48 20.48 0 0 0-10.496-15.36 30.0544 30.0544 0 0 0-18.9952-3.072 206.6432 206.6432 0 0 0-87.3984 49.8688 22.1696 22.1696 0 0 0-7.3728 17.4592 19.6608 19.6608 0 0 0 9.472 16.4352 27.0336 27.0336 0 0 1 11.6224 22.5792 29.0816 29.0816 0 0 1-40.0384 26.7264 23.808 23.808 0 0 0-18.944 1.024 19.8144 19.8144 0 0 0-11.5712 15.36 232.3456 232.3456 0 0 0-5.12 47.2576 238.3872 238.3872 0 0 0 5.12 47.3088 19.968 19.968 0 0 0 11.5712 14.3872 24.1664 24.1664 0 0 0 18.944 2.0992 25.856 25.856 0 0 1 8.448-1.0752 29.1328 29.1328 0 0 1 29.5424 28.7744 25.6 25.6 0 0 1-10.5472 21.5552 25.1904 25.1904 0 0 0-8.448 16.4352 20.1728 20.1728 0 0 0 7.3728 16.4352 210.3808 210.3808 0 0 0 88.4736 50.3808 20.8896 20.8896 0 0 0 18.944-3.072 23.2448 23.2448 0 0 0 10.5472-15.36 29.952 29.952 0 0 1 58.9824 0 20.48 20.48 0 0 0 10.496 15.36 30.72 30.72 0 0 0 12.6464 4.096 13.568 13.568 0 0 0 6.2976-1.024 216.7808 216.7808 0 0 0 86.3744-48.3328 22.2208 22.2208 0 0 0 7.424-17.4592A19.6608 19.6608 0 0 0 885.76 890.88a27.0848 27.0848 0 0 1-11.5712-22.5792 29.0304 29.0304 0 0 1 29.4912-28.7232 46.08 46.08 0 0 1 11.5712 2.048 24.1664 24.1664 0 0 0 18.944-1.024 19.968 19.968 0 0 0 11.6224-14.4384 197.8368 197.8368 0 0 0 6.2976-49.3056 273.408 273.408 0 0 0-7.3216-53.3504z m-203.3152 142.848a91.7504 91.7504 0 0 1-92.7232-90.4704c0-49.3056 42.1376-90.4192 92.7232-90.4192s92.7232 40.96 92.7232 90.4192a91.6992 91.6992 0 0 1-92.7232 90.4704z" p-id="21963">
  </path>
  <path d="M720.7424 828.2112a56.7296 56.7296 0 1 0-23.4496-17.9712 56.9344 56.9344 0 0 0 23.4496 17.9712zM706.56 296.96a245.76 245.76 0 1 0-386.5088 201.3184A378.368 378.368 0 0 0 85.4528 901.12a35.84 35.84 0 0 0 71.0656-9.3696 307.2 307.2 0 0 1 413.5424-328.8576 35.84 35.84 0 0 0 28.2624-1.1776 35.84 35.84 0 0 0 2.816-63.0784A245.76 245.76 0 0 0 706.56 296.96z m-419.84 0a174.08 174.08 0 1 1 174.08 174.08 174.08 174.08 0 0 1-174.08-174.08z" p-id="21964">
  </path>
</svg>
