<?xml version="1.0" standalone="no"?><!DOCTYPE svg PUBLIC "-//W3C//DTD SVG 1.1//EN" "http://www.w3.org/Graphics/SVG/1.1/DTD/svg11.dtd">
<svg
  t="1730645677188"
  class="svg-icon"
  viewBox="0 0 1024 1024"
  version="1.1"
  xmlns="http://www.w3.org/2000/svg"
  p-id="5329"
  xmlns:xlink="http://www.w3.org/1999/xlink"
  width="200"
  height="200"
>
  <path d="M142.08 791.17824H51.98336c-16.56832 0-30.0288 13.47072-30.0288 30.09536 0 16.62976 13.46048 30.11072 30.0288 30.11072H142.08c16.56832 0 30.0288-13.48608 30.0288-30.11072 0.00512-16.62464-13.46048-30.09536-30.0288-30.09536z m829.93664 0H352.29696a30.07488 30.07488 0 0 0-30.03904 30.09536c0 16.62976 13.4656 30.11072 30.03904 30.11072h619.71968c16.5632 0 30.0288-13.48608 30.0288-30.11072 0.00512-16.62464-13.4656-30.09536-30.0288-30.09536zM142.08 481.8944H51.98336c-16.56832 0-30.0288 13.48096-30.0288 30.1056s13.46048 30.10048 30.0288 30.10048H142.08c16.56832 0 30.0288-13.47584 30.0288-30.10048 0.00512-16.62464-13.46048-30.1056-30.0288-30.1056z m829.93664 0H352.29696c-16.57344 0-30.03904 13.48096-30.03904 30.1056s13.4656 30.10048 30.03904 30.10048h619.71968c16.5632 0 30.0288-13.47584 30.0288-30.10048 0.00512-16.62464-13.4656-30.1056-30.0288-30.1056zM142.08 172.6208H51.98336c-16.56832 0-30.0288 13.48096-30.0288 30.1056 0 16.61952 13.46048 30.10048 30.0288 30.10048H142.08c16.56832 0 30.0288-13.47584 30.0288-30.10048 0.00512-16.62464-13.46048-30.1056-30.0288-30.1056z m210.21696 60.20608h619.71456c16.56832 0 30.03392-13.48096 30.03392-30.10048s-13.4656-30.1056-30.03392-30.1056H352.29696c-16.56832 0-30.03392 13.48608-30.03392 30.1056s13.46048 30.10048 30.03392 30.10048z" p-id="5330">
  </path>
</svg>
