<?xml version="1.0" standalone="no"?><!DOCTYPE svg PUBLIC "-//W3C//DTD SVG 1.1//EN" "http://www.w3.org/Graphics/SVG/1.1/DTD/svg11.dtd">
<svg
  t="1730728518021"
  class="svg-icon"
  viewBox="0 0 1024 1024"
  version="1.1"
  xmlns="http://www.w3.org/2000/svg"
  p-id="4554"
  xmlns:xlink="http://www.w3.org/1999/xlink"
  width="200"
  height="200"
>
  <path d="M791.137765 649.618497a187.190751 187.190751 0 1 0 187.190752 187.190752 187.190751 187.190751 0 0 0-187.190752-187.190752zM896.201349 857.526012h-84.346821v83.236994a20.716763 20.716763 0 1 1-41.433526 0v-83.236994h-83.236994a21.086705 21.086705 0 0 1-22.196532-19.606937 20.716763 20.716763 0 0 1 19.606937-21.826589h85.826589V732.855491a20.716763 20.716763 0 1 1 41.433526 0v83.236995H896.201349a20.716763 20.716763 0 1 1 0 41.433526z" p-id="4555">
  </path>
  <path d="M489.264933 566.751445a283.375723 283.375723 0 1 1 281.156069-283.375722 283.745665 283.745665 0 0 1-281.156069 283.375722zM489.264933 74.358382a209.387283 209.387283 0 1 0 207.16763 209.017341A209.757225 209.757225 0 0 0 489.264933 74.358382z" p-id="4556">
  </path>
  <path d="M82.328517 971.468208a36.99422 36.99422 0 0 1-36.99422-36.99422 443.930636 443.930636 0 0 1 443.930636-441.710982 439.121387 439.121387 0 0 1 258.959537 84.346821 36.99422 36.99422 0 0 1 7.028902 52.161849 36.99422 36.99422 0 0 1-51.791907 8.508671A361.803468 361.803468 0 0 0 489.264933 566.751445a369.942197 369.942197 0 0 0-369.942197 367.722543 36.99422 36.99422 0 0 1-36.994219 36.99422z" p-id="4557">
  </path>
</svg>
