<?xml version="1.0" standalone="no"?><!DOCTYPE svg PUBLIC "-//W3C//DTD SVG 1.1//EN" "http://www.w3.org/Graphics/SVG/1.1/DTD/svg11.dtd">
<svg
  t="1733968608684"
  class="svg-icon"
  viewBox="0 0 1024 1024"
  version="1.1"
  xmlns="http://www.w3.org/2000/svg"
  p-id="9441"
  xmlns:xlink="http://www.w3.org/1999/xlink"
  width="200"
  height="200"
>
  <path d="M670.047 621.053a226.47 226.47 0 0 0-73.543 61.737A317.479 317.479 0 0 0 126.46 961.3a45.535 45.535 0 0 1-91.01 0c0-168.648 102.153-313.384 247.973-375.723a292.724 292.724 0 1 1 321.032 0c22.888 9.758 44.872 21.683 65.592 35.476z m-226.108-78.601a201.654 201.654 0 1 0 0-403.308 201.654 201.654 0 0 0 0 403.308z m261.524 278.027l-67.158-67.218a45.535 45.535 0 0 1 64.327-64.327l67.218 67.158 67.157-67.158a45.475 45.475 0 1 1 64.388 64.327l-67.218 67.218 67.218 67.158a45.475 45.475 0 1 1-64.388 64.387l-67.157-67.218-67.218 67.218a45.535 45.535 0 0 1-64.327-64.387l67.158-67.158z" p-id="9442">
  </path>
</svg>
