<?xml version="1.0" standalone="no"?><!DOCTYPE svg PUBLIC "-//W3C//DTD SVG 1.1//EN" "http://www.w3.org/Graphics/SVG/1.1/DTD/svg11.dtd">
<svg
  t="1731653902420"
  class="svg-icon"
  viewBox="0 0 1165 1024"
  version="1.1"
  xmlns="http://www.w3.org/2000/svg"
  p-id="4618"
  xmlns:xlink="http://www.w3.org/1999/xlink"
  width="227.5390625"
  height="200"
>
  <path d="M790.000403 658.654817a460.148971 460.148971 0 0 0-147.178671-99.173778c-7.535983-3.165993-15.071966-6.029987-22.607949-8.81798a297.899334 297.899334 0 1 0-315.306295 0c-7.535983 2.788994-15.071966 5.651987-22.607949 8.81798A462.559966 462.559966 0 0 0 0.00017 985.868085a36.549918 36.549918 0 0 0 73.023837 0 389.838128 389.838128 0 1 1 779.600256 0 36.473918 36.473918 0 1 0 72.873837 0A461.881967 461.881967 0 0 0 789.848404 658.654817zM303.551491 457.141268a225.176496 225.176496 0 1 1 159.235644 65.939852 223.5935 223.5935 0 0 1-159.236644-65.939852z" p-id="4619">
  </path>
  <path d="M1133.943634 750.518612A388.632131 388.632131 0 0 0 928.438094 545.011071c-6.631985-2.787994-13.33897-5.349988-20.120955-7.535983a304.379319 304.379319 0 0 0 69.632844-63.527858 262.329413 262.329413 0 0 0 58.779869-164.888631 266.624404 266.624404 0 0 0-75.359832-183.35059 332.941255 332.941255 0 0 0-182.898591-96.159785 36.473918 36.473918 0 0 0-12.735971 71.817839C880.508201 121.864017 963.856015 209.281822 963.856015 309.058599c0 87.191805-61.569862 164.662632-156.67365 197.142559a37.152917 37.152917 0 0 0-13.865969 8.74198h-15.071966a36.473918 36.473918 0 1 0 0 72.947837 313.498299 313.498299 0 0 1 313.121299 313.1213 36.549918 36.549918 0 1 0 73.023837 0 384.33614 384.33614 0 0 0-30.445932-150.493663z" p-id="4620">
  </path>
</svg>
