<?xml version="1.0" standalone="no"?><!DOCTYPE svg PUBLIC "-//W3C//DTD SVG 1.1//EN" "http://www.w3.org/Graphics/SVG/1.1/DTD/svg11.dtd">
<svg
  t="1731032724157"
  class="svg-icon"
  viewBox="0 0 1024 1024"
  version="1.1"
  xmlns="http://www.w3.org/2000/svg"
  p-id="24136"
  xmlns:xlink="http://www.w3.org/1999/xlink"
  width="200"
  height="200"
>
  <path d="M293.546667 180.906667c0-20.48 10.24-30.72 30.72-30.72h522.24c17.066667 0 27.306667 10.24 27.306666 30.72v662.186666c0 20.48-10.24 30.72-27.306666 30.72H320.853333c-20.48 0-30.72-10.24-30.72-30.72v-44.373333c0-6.826667-3.413333-17.066667-10.24-23.893333-6.826667-6.826667-13.653333-10.24-23.893333-10.24-6.826667 0-17.066667 3.413333-23.893333 10.24-6.826667 6.826667-10.24 17.066667-10.24 23.893333v44.373333c0 61.44 34.133333 95.573333 95.573333 95.573334h522.24c61.44 0 92.16-34.133333 92.16-95.573334V180.906667c0-61.44-30.72-95.573333-92.16-95.573334H320.853333c-61.44 0-95.573333 34.133333-95.573333 95.573334v44.373333c0 10.24 3.413333 17.066667 10.24 23.893333 6.826667 6.826667 17.066667 10.24 23.893333 10.24 10.24 0 17.066667-3.413333 23.893334-10.24 6.826667-3.413333 10.24-10.24 10.24-20.48V180.906667z" p-id="24137">
  </path>
  <path d="M426.666667 375.466667c-6.826667 6.826667-10.24 13.653333-10.24 27.306666 0 6.826667 3.413333 13.653333 10.24 20.48l68.266666 64.853334h-375.466666c-6.826667 0-17.066667 3.413333-23.893334 10.24s-10.24 13.653333-10.24 23.893333c0 6.826667 3.413333 17.066667 10.24 23.893333 6.826667 6.826667 17.066667 10.24 23.893334 10.24h372.053333L436.906667 614.4c-6.826667 6.826667-10.24 13.653333-10.24 23.893333 0 10.24 3.413333 17.066667 10.24 23.893334 6.826667 6.826667 13.653333 10.24 23.893333 10.24 10.24 0 17.066667-3.413333 23.893333-10.24l119.466667-122.88c3.413333-6.826667 6.826667-13.653333 6.826667-23.893334 0-10.24-3.413333-17.066667-10.24-23.893333L474.453333 375.466667c-6.826667-6.826667-17.066667-10.24-23.893333-10.24-10.24 0-20.48 3.413333-23.893333 10.24z" p-id="24138">
  </path>
</svg>
