<?xml version="1.0" standalone="no"?><!DOCTYPE svg PUBLIC "-//W3C//DTD SVG 1.1//EN" "http://www.w3.org/Graphics/SVG/1.1/DTD/svg11.dtd">
<svg
  t="1730728654531"
  class="svg-icon"
  viewBox="0 0 1024 1024"
  version="1.1"
  xmlns="http://www.w3.org/2000/svg"
  p-id="9870"
  xmlns:xlink="http://www.w3.org/1999/xlink"
  width="200"
  height="200"
>
  <path d="M512 800c251.392 0 448-135.168 448-288s-196.608-288-448-288S64 359.168 64 512s196.608 288 448 288z m0 64c-282.752 0-512-157.568-512-352s229.248-352 512-352 512 157.568 512 352-229.248 352-512 352z" p-id="9871">
  </path>
  <path d="M512 640a128 128 0 1 0 0-256 128 128 0 0 0 0 256z m0 64a192 192 0 1 1 0-384 192 192 0 0 1 0 384z" p-id="9872">
  </path>
</svg>
