<?xml version="1.0" standalone="no"?><!DOCTYPE svg PUBLIC "-//W3C//DTD SVG 1.1//EN" "http://www.w3.org/Graphics/SVG/1.1/DTD/svg11.dtd">
<svg
  t="1733968762169"
  class="svg-icon"
  viewBox="0 0 1024 1024"
  version="1.1"
  xmlns="http://www.w3.org/2000/svg"
  p-id="10510"
  xmlns:xlink="http://www.w3.org/1999/xlink"
  width="200"
  height="200"
>
  <path d="M738.22925 546.933752a438.62606 438.62606 0 0 0-153.318682-84.948195c69.686656-45.372684 111.110832-121.579906 111.110832-204.940659 0-134.811931-109.684144-244.486028-244.486028-244.486028-134.811931 0-244.496075 109.674097-244.496075 244.486028 0 83.390895 41.44427 159.608163 111.140973 204.960753C146.435215 516.169545 25.980584 666.29325 10.658763 845.97551a35.647096 35.647096 0 0 0 35.436107 38.138776 35.35573 35.35573 0 0 0 35.315541-32.130613c16.22606-190.342229 178.798116-339.451177 370.727787-339.451177 87.912088 0 173.161695 31.427316 240.025118 88.49482a35.516484 35.516484 0 0 0 46.065934-54.093564zM451.535372 83.561695c95.648352 0 173.473155 77.814757 173.473155 173.473156S547.183724 430.518053 451.535372 430.518053c-95.658399 0-173.483203-77.824804-173.483202-173.483202S355.876973 83.561695 451.535372 83.561695z" p-id="10511">
  </path>
  <path d="M960.631761 857.680377l-42.157613-85.299843c-3.215071-8.419466-8.982104-12.277551-13.25212-14.025746a23.429827 23.429827 0 0 0-8.911774-1.7281 27.127159 27.127159 0 0 0-11.55416 2.652433l-86.274411 42.599686a25.368917 25.368917 0 0 0-11.634537 34.320879c6.168917 12.468446 21.762009 17.803454 34.330926 11.634537l39.243956-19.380848c-7.495133 34.461538-30.51303 63.889482-62.99529 79.934694-16.075353 7.937206-33.376452 11.966091-51.421036 11.966091a119.088226 119.088226 0 0 1-92.724647-44.317739l-0.813815-0.803768a26.855887 26.855887 0 0 0-28.011303-2.983987 26.29325 26.29325 0 0 0-12.830141 33.235792l0.723391 1.265934a170.649922 170.649922 0 0 0 134.420094 65.908949c25.84113 0 50.697645-5.797174 73.886342-17.250864a169.494505 169.494505 0 0 0 84.455887-94.412559l9.564835 19.370801c6.15887 12.498587 21.772057 17.843642 34.340974 11.664678a25.389011 25.389011 0 0 0 11.614442-34.35102zM706.872264 789.983046a25.569859 25.569859 0 0 0-1.376452-19.621978c-6.168917-12.468446-21.772057-17.843642-34.32088-11.62449l-40.047723 19.782731c7.615699-35.345683 30.352276-65.125275 62.211617-80.859026a115.169859 115.169859 0 0 1 51.491366-11.986186c34.742857 0 67.566719 15.000314 90.052119 41.172999 0.854003 0.994662 1.687912 2.019466 2.903611 3.476295 7.826688 7.786499 20.365463 9.926531 30.291993 5.033595a26.263108 26.263108 0 0 0 13.332496-15.22135 26.22292 26.22292 0 0 0-1.346311-20.214757 11.513972 11.513972 0 0 0-0.703296-1.185557l-4.390581 2.461538v-0.010047l3.817896-3.305494a132.862794 132.862794 0 0 0-4.099215-4.812559l-1.366405-1.5573c-32.030141-36.491052-78.477865-57.419152-127.437362-57.419152a168.590267 168.590267 0 0 0-75.252748 17.592464c-39.987441 19.762637-69.545997 53.118995-84.275039 94.75416l-9.745683-19.712401c-6.15887-12.498587-21.802198-17.843642-34.330926-11.634537a25.660283 25.660283 0 0 0-12.72967 14.819466c-2.210361 6.510518-1.808477 13.623862 1.095133 19.501413l42.609733 86.274411c4.430769 8.992151 12.880377 14.367347 22.595919 14.367347 4.04898 0 8.108006-0.954474 11.72496-2.73281l86.264365-42.609733a25.539717 25.539717 0 0 0 13.031083-14.729042z" p-id="10512">
  </path>
</svg>
